<svg width="30" height="35" viewBox="0 0 30 35" fill="none" xmlns="http://www.w3.org/2000/svg">
<g filter="url(#filter0_d_0_3522)">
<path d="M6.37957 23.3266V3.59978C6.37957 2.58785 7.22488 1.76456 8.26723 1.76456L22.5413 1.76456C23.5836 1.76456 24.4289 2.58785 24.4289 3.59978V23.3266C24.4289 24.34 23.5836 25.1619 22.5413 25.1619H8.26723C7.22488 25.1619 6.37957 24.34 6.37957 23.3266Z" fill="#BDBDBD"/>
<path fill-rule="evenodd" clip-rule="evenodd" d="M4.8755 3.59977V23.3266C4.8755 25.1443 6.39767 26.6242 8.26728 26.6242H22.5413C24.4109 26.6242 25.9331 25.1443 25.9331 23.3266V3.59977C25.9331 1.7821 24.4109 0.302216 22.5413 0.302216L8.26728 0.302216C6.39767 0.302216 4.8755 1.7821 4.8755 3.59977ZM22.5413 3.22693C22.7534 3.22693 22.9249 3.39218 22.9249 3.59983V23.3267C22.9249 23.5329 22.7534 23.6996 22.5413 23.6996H8.26728C8.0552 23.6996 7.88373 23.5329 7.88373 23.3267V3.59983C7.88373 3.39218 8.0552 3.22693 8.26728 3.22693L22.5413 3.22693Z" fill="#E9E9E9"/>
<path d="M22.5413 25.1618C23.5836 25.1618 24.4289 24.34 24.4289 23.3266V16.3878V12.3737C24.4289 11.3589 23.5836 10.5385 22.5413 10.5385H18.4125L8.26723 10.5385C7.22488 10.5385 6.37957 11.3589 6.37957 12.3737V14.5526C6.37957 15.566 7.22488 16.3878 8.26723 16.3878H16.5248C17.5672 16.3878 18.4125 17.2096 18.4125 18.223V23.3266C18.4125 24.34 19.2578 25.1618 20.3001 25.1618H22.5413Z" fill="#C4C4C4"/>
<path fill-rule="evenodd" clip-rule="evenodd" d="M4.87548 12.3737V14.5525C4.87548 16.3702 6.39764 17.8501 8.26725 17.8501H16.5248C16.7369 17.8501 16.9084 18.0153 16.9084 18.223V23.3265C16.9084 25.1442 18.4305 26.6241 20.3002 26.6241H22.5413C24.4109 26.6241 25.9331 25.1442 25.9331 23.3265V12.3737C25.9331 10.556 24.4109 9.07611 22.5413 9.07611L8.26725 9.07611C6.39764 9.07611 4.87548 10.556 4.87548 12.3737ZM22.5413 12.0008C22.7534 12.0008 22.9248 12.1661 22.9248 12.3737V23.3266C22.9248 23.5328 22.7534 23.6995 22.5413 23.6995H20.3002C20.0881 23.6995 19.9166 23.5328 19.9166 23.3266V18.223C19.9166 16.4054 18.3944 14.9255 16.5248 14.9255H8.26726C8.05518 14.9255 7.88371 14.7588 7.88371 14.5526V12.3737C7.88371 12.1661 8.05518 12.0008 8.26726 12.0008H22.5413Z" fill="#E9E9E9"/>
<path d="M10.8919 25.1619V16.3879C10.8919 15.5792 11.5658 14.9256 12.396 14.9256C13.2263 14.9256 13.9001 15.5792 13.9001 16.3879V25.1619C13.9001 25.9706 13.2263 26.6242 12.396 26.6242C11.5658 26.6242 10.8919 25.9706 10.8919 25.1619Z" fill="#E9E9E9"/>
<path d="M16.9084 10.5385V1.76455C16.9084 0.955878 17.5822 0.302216 18.4125 0.302216C19.2428 0.302216 19.9166 0.955878 19.9166 1.76455V10.5385C19.9166 11.3472 19.2428 12.0009 18.4125 12.0009C17.5822 12.0009 16.9084 11.3472 16.9084 10.5385Z" fill="#E9E9E9"/>
<path d="M10.8919 10.5385V1.76455C10.8919 0.955878 11.5658 0.302216 12.396 0.302216C13.2263 0.302216 13.9001 0.955878 13.9001 1.76455V10.5385C13.9001 11.3472 13.2263 12.0009 12.396 12.0009C11.5658 12.0009 10.8919 11.3472 10.8919 10.5385Z" fill="#E9E9E9"/>
</g>
<defs>
<filter id="filter0_d_0_3522" x="0.875481" y="0.302216" width="29.0576" height="34.322" filterUnits="userSpaceOnUse" color-interpolation-filters="sRGB">
<feFlood flood-opacity="0" result="BackgroundImageFix"/>
<feColorMatrix in="SourceAlpha" type="matrix" values="0 0 0 0 0 0 0 0 0 0 0 0 0 0 0 0 0 0 127 0" result="hardAlpha"/>
<feOffset dy="4"/>
<feGaussianBlur stdDeviation="2"/>
<feComposite in2="hardAlpha" operator="out"/>
<feColorMatrix type="matrix" values="0 0 0 0 0 0 0 0 0 0 0 0 0 0 0 0 0 0 0.25 0"/>
<feBlend mode="normal" in2="BackgroundImageFix" result="effect1_dropShadow_0_3522"/>
<feBlend mode="normal" in="SourceGraphic" in2="effect1_dropShadow_0_3522" result="shape"/>
</filter>
</defs>
</svg>
