<svg width="41" height="26" viewBox="0 0 41 26" fill="none" xmlns="http://www.w3.org/2000/svg">
<path d="M26.4103 12.963C26.4103 17.0685 24.4624 20.7288 21.4377 23.0906C23.7148 24.8651 26.5374 25.8504 29.4676 25.8504C36.6322 25.8504 42.4612 20.0691 42.4612 12.963C42.4612 5.85685 36.6322 0.0755463 29.4676 0.0755463C26.5374 0.0755463 23.7148 1.06091 21.4421 2.83179C24.4623 5.19702 26.4103 8.85751 26.4103 12.963Z" fill="#FFE26A"/>
<path d="M26.4103 12.963C26.4103 8.85749 24.4623 5.197 21.4377 2.83542C19.227 1.10926 16.4421 0.075531 13.4167 0.075531C6.25202 0.075531 0.423096 5.85684 0.423096 12.963C0.423096 20.0691 6.25202 25.8504 13.4167 25.8504C16.4421 25.8504 19.227 24.8167 21.4377 23.0905C24.4625 20.7288 26.4103 17.0685 26.4103 12.963Z" fill="#FF5023"/>
</svg>
